<?xml version="1.0" standalone="no"?><!DOCTYPE svg PUBLIC "-//W3C//DTD SVG 1.1//EN" "http://www.w3.org/Graphics/SVG/1.1/DTD/svg11.dtd"><svg t="1675823213309" class="icon" viewBox="0 0 1024 1024" version="1.1" xmlns="http://www.w3.org/2000/svg" p-id="1394" width="64" height="64" xmlns:xlink="http://www.w3.org/1999/xlink"><path d="M791.978667 112a120.021333 120.021333 0 0 1 120.021333 120.021333v560a120.021333 120.021333 0 0 1-120.021333 120.021334H231.978667a120.021333 120.021333 0 0 1-120.021334-120.021334V232.021333a120.021333 120.021333 0 0 1 120.021334-120.021333h560z" fill="#CEDDFF" p-id="1395"></path><path d="M791.978667 112a120.021333 120.021333 0 0 1 120.021333 120.021333v560a120.021333 120.021333 0 0 1-120.021333 120.021334H231.978667a120.021333 120.021333 0 0 1-120.021334-120.021334V232.021333a120.021333 120.021333 0 0 1 120.021334-120.021333h560z m0 59.989333H231.978667c-33.152 0-60.032 26.88-60.032 60.032v560c0 33.152 26.88 59.989333 60.032 59.989334h560c33.152 0 59.989333-26.88 59.989333-59.989334V232.021333c0-33.152-26.88-60.032-59.989333-60.032z" fill="#487EFF" p-id="1396"></path><path d="M584.021333 342.016a29.994667 29.994667 0 0 1-29.994666 29.994667H285.994667a29.994667 29.994667 0 0 1 0-59.989334h268.032c16.597333 0 29.994667 13.397333 29.994666 29.994667zM774.058667 682.026667a29.994667 29.994667 0 0 1-29.994667 29.994666H285.994667a29.994667 29.994667 0 1 1 0-59.989333H744.106667c16.554667 0 29.994667 13.44 29.994666 29.994667zM774.058667 512a29.994667 29.994667 0 0 1-29.994667 29.994667H285.994667a29.994667 29.994667 0 1 1 0-59.989334H744.106667c16.554667 0 29.994667 13.397333 29.994666 29.994667z" fill="#487EFF" p-id="1397"></path></svg>